<?xml version="1.0" standalone="no"?>
<!DOCTYPE svg PUBLIC "-//W3C//DTD SVG 20010904//EN"
 "http://www.w3.org/TR/2001/REC-SVG-20010904/DTD/svg10.dtd">
<svg version="1.0" xmlns="http://www.w3.org/2000/svg"
 width="175.000000pt" height="165.000000pt" viewBox="0 0 175.000000 165.000000"
 preserveAspectRatio="xMidYMid meet">

<g transform="translate(0.000000,165.000000) scale(0.100000,-0.100000)"
fill="#000000" stroke="none">
<path d="M119 1513 c-59 -36 -73 -108 -45 -221 44 -174 50 -247 51 -617 0
-325 2 -363 18 -386 33 -49 98 -60 231 -40 68 11 221 28 337 37 74 7 77 6 84
-17 4 -13 13 -28 19 -34 6 -7 22 -26 35 -44 25 -32 96 -87 158 -122 44 -25 51
-24 26 4 -38 41 -63 98 -70 158 l-6 59 104 0 c57 0 149 -7 204 -14 187 -26
258 -29 297 -13 59 25 62 40 63 257 1 236 33 545 71 687 8 28 14 72 14 98 0
48 -25 105 -46 105 -7 0 -14 5 -16 11 -3 8 -107 10 -348 9 -338 -1 -504 7
-705 35 -240 33 -273 38 -319 51 -66 18 -125 17 -157 -3z m812 -175 c0 -10 2
-10 6 0 2 6 11 12 18 12 17 0 75 -66 75 -85 0 -8 5 -15 10 -15 6 0 10 9 10 19
0 11 12 33 26 50 26 32 54 41 54 19 0 -9 3 -8 10 2 8 13 13 13 37 -2 36 -22
63 -73 63 -121 0 -105 -152 -135 -189 -37 l-9 25 -10 -26 c-33 -84 -168 -75
-187 12 -10 44 2 94 31 129 26 31 53 40 55 18z m-111 -8 c12 -8 8 -24 -26
-107 -34 -83 -44 -98 -63 -99 -17 -1 -27 7 -36 29 l-13 31 -16 -32 c-12 -24
-22 -31 -39 -28 -18 2 -28 20 -55 91 -18 49 -30 95 -27 102 10 26 38 9 50 -32
7 -22 18 -53 25 -70 l12 -30 14 30 c7 17 10 40 8 51 -4 15 0 23 15 27 15 4 22
-2 31 -27 33 -89 29 -88 64 -4 17 43 33 78 36 78 3 0 12 -5 20 -10z m66 -402
c-1 -46 3 -91 8 -100 7 -15 3 -18 -25 -18 l-34 0 0 100 0 100 26 0 c25 0 25 0
25 -82z m134 62 c0 -15 -7 -20 -25 -20 -34 0 -59 -40 -50 -80 7 -34 32 -52 62
-44 31 9 38 -24 8 -38 -40 -18 -81 5 -101 58 -19 51 -13 86 21 120 31 31 85
34 85 4z m178 -2 c-3 -20 -10 -23 -50 -26 -44 -3 -48 -5 -48 -28 0 -24 2 -25
39 -19 33 5 39 4 44 -14 4 -17 -1 -21 -39 -27 -29 -4 -44 -11 -44 -21 0 -11
11 -14 47 -12 32 2 48 -1 51 -10 7 -21 -18 -31 -80 -31 l-58 0 0 80 c0 50 -4
80 -11 80 -6 0 -9 8 -7 18 2 13 17 18 68 23 36 3 71 6 78 7 8 1 12 -6 10 -20z
m-537 -17 c29 -29 29 -29 29 -6 0 50 102 33 116 -19 6 -25 -10 -66 -26 -66
-19 0 -10 -17 15 -30 14 -7 25 -19 25 -26 0 -24 -22 -26 -51 -5 -33 25 -40 26
-33 6 4 -10 0 -15 -14 -15 -24 0 -32 18 -32 72 l0 41 -20 -26 c-11 -14 -29
-29 -40 -32 -13 -4 -20 -15 -20 -31 0 -17 -5 -24 -20 -24 -19 0 -20 7 -20 89
0 77 2 90 18 94 35 9 44 6 73 -22z m-140 -283 c0 -10 2 -10 6 0 8 21 30 13 61
-22 74 -84 41 -196 -58 -196 -70 0 -110 57 -96 135 11 57 84 126 87 83z m308
-5 c6 -10 11 -12 11 -5 0 6 12 12 28 12 l28 0 0 -82 c0 -46 4 -95 8 -110 8
-27 7 -28 -27 -28 l-34 0 5 89 c4 83 3 89 -16 95 -11 4 -32 4 -46 0 -26 -6
-26 -8 -26 -95 0 -80 -2 -89 -19 -89 -16 0 -19 11 -25 90 l-8 90 -39 0 c-32 0
-39 3 -39 20 0 16 8 20 58 23 128 8 131 8 141 -10z m-499 -41 l35 -47 3 48 c3
42 6 47 27 47 23 0 24 -2 27 -110 3 -101 2 -109 -17 -114 -22 -6 -35 9 -35 40
0 11 -16 36 -36 55 l-36 34 4 -62 c3 -55 1 -63 -17 -67 -29 -8 -35 10 -35 122
0 99 1 102 23 102 14 -1 34 -17 57 -48z m832 -41 c-3 -60 -1 -90 7 -95 24 -15
11 -36 -23 -36 l-33 0 1 63 c0 34 -3 83 -7 110 l-8 47 34 0 34 0 -5 -89z m198
70 c0 -23 -19 -31 -71 -31 -37 0 -39 -2 -39 -31 l0 -30 46 7 c44 6 46 6 42
-17 -2 -20 -9 -24 -45 -27 -36 -3 -43 -7 -43 -24 0 -19 4 -20 49 -14 40 5 50
3 55 -11 10 -24 -11 -33 -85 -33 l-66 0 1 90 c1 66 -2 90 -11 90 -7 0 -13 9
-13 20 0 16 8 20 63 23 34 2 74 4 90 5 20 2 27 -2 27 -17z m-270 -10 c0 -23
-19 -31 -71 -31 -35 0 -39 -2 -39 -26 0 -25 2 -26 44 -20 38 6 44 4 49 -13 7
-27 1 -31 -50 -31 l-44 0 3 -37 c3 -33 0 -38 -19 -41 -21 -3 -23 1 -25 40 -1
24 -1 62 1 86 1 24 -2 42 -8 42 -6 0 -11 9 -11 19 0 17 8 21 53 24 119 8 117
8 117 -12z m379 -7 c37 -30 40 -61 9 -94 l-21 -23 30 -26 c50 -42 22 -71 -30
-31 -30 24 -37 25 -37 4 0 -10 -7 -14 -22 -12 -22 3 -23 8 -26 100 -3 94 -2
97 20 101 42 8 46 7 77 -19z"/>
<path d="M906 1288 c-22 -36 -27 -63 -17 -91 12 -31 50 -44 80 -27 29 15 29
78 0 114 -25 32 -44 33 -63 4z"/>
<path d="M1106 1288 c-21 -29 -20 -92 0 -112 38 -38 101 2 90 57 -7 34 -42 77
-62 77 -7 0 -20 -10 -28 -22z"/>
<path d="M610 930 c0 -22 4 -28 15 -24 8 4 15 14 15 24 0 10 -7 20 -15 24 -11
4 -15 -2 -15 -24z"/>
<path d="M730 930 c0 -28 2 -30 20 -20 11 6 20 15 20 20 0 5 -9 14 -20 20 -18
10 -20 8 -20 -20z"/>
<path d="M496 638 c-22 -36 -27 -63 -17 -91 12 -31 50 -44 80 -27 29 15 29 78
0 114 -25 32 -44 33 -63 4z"/>
<path d="M1410 605 c0 -36 1 -37 21 -24 28 19 28 29 2 47 -22 14 -23 14 -23
-23z"/>
</g>
</svg>
